<svg xmlns="http://www.w3.org/2000/svg" viewBox="0 0 512 512">
  <defs>
    <linearGradient id="bg" x1="0" y1="0" x2="0" y2="1">
      <stop offset="0%" stop-color="#131a3d"/><stop offset="100%" stop-color="#05070f"/>
    </linearGradient>
    <linearGradient id="aur" x1="0" y1="0" x2="1" y2="0">
      <stop offset="0%" stop-color="#46e0c0"/><stop offset="100%" stop-color="#818cf8"/>
    </linearGradient>
    <linearGradient id="moon" x1="0" y1="1" x2="1" y2="0">
      <stop offset="0%" stop-color="#fde68a"/><stop offset="100%" stop-color="#f59e0b"/>
    </linearGradient>
  </defs>
  <rect width="512" height="512" rx="112" fill="url(#bg)"/>
  <path d="M-20 168 C 90 96, 260 120, 532 196 L 532 260 C 280 190, 110 170, -20 226 Z" fill="url(#aur)" opacity="0.55"/>
  <circle cx="88" cy="96" r="3" fill="#fff" opacity="0.8"/>
  <circle cx="410" cy="120" r="2.5" fill="#fff" opacity="0.9"/>
  <circle cx="350" cy="210" r="2" fill="#fff" opacity="0.55"/>
  <circle cx="120" cy="200" r="2" fill="#fff" opacity="0.5"/>
  <path d="M 321 204 A 116 116 0 1 0 205 438 A 98 98 0 0 1 321 204 Z" fill="url(#moon)"/>
  <circle cx="455" cy="300" r="2" fill="#fff" opacity="0.45"/>
  <circle cx="60" cy="420" r="2" fill="#fff" opacity="0.35"/>
</svg>